<mxfile host="app.diagrams.net" agent="Mozilla/5.0 (Windows NT 10.0; Win64; x64) AppleWebKit/537.36 (KHTML, like Gecko) Chrome/134.0.0.0 Safari/537.36 Edg/134.0.0.0" version="26.2.3">
  <diagram name="PÃ¡gina-1" id="urX7B1EApeD-NN-n3d0C">
    <mxGraphModel dx="3030" dy="794" grid="1" gridSize="10" guides="1" tooltips="1" connect="1" arrows="1" fold="1" page="1" pageScale="1" pageWidth="827" pageHeight="1169" math="0" shadow="0">
      <root>
        <mxCell id="0" />
        <mxCell id="1" parent="0" />
        <mxCell id="t5vnjOaVWkokOSNiDNNh-1" value="Evento" style="swimlane;html=1;fontStyle=0;childLayout=stackLayout;horizontal=1;startSize=26;fillColor=#e0e0e0;horizontalStack=0;resizeParent=1;resizeLast=0;collapsible=1;marginBottom=0;swimlaneFillColor=#ffffff;align=center;rounded=0;shadow=0;comic=0;labelBackgroundColor=none;strokeWidth=1;fontFamily=Verdana;fontSize=14" vertex="1" parent="1">
          <mxGeometry x="-660" y="120" width="190" height="264" as="geometry" />
        </mxCell>
        <mxCell id="t5vnjOaVWkokOSNiDNNh-2" value="EventoId: E" style="shape=partialRectangle;top=0;left=0;right=0;bottom=1;html=1;align=left;verticalAlign=middle;fillColor=none;spacingLeft=34;spacingRight=4;whiteSpace=wrap;overflow=hidden;rotatable=0;points=[[0,0.5],[1,0.5]];portConstraint=eastwest;dropTarget=0;fontStyle=5;" vertex="1" parent="t5vnjOaVWkokOSNiDNNh-1">
          <mxGeometry y="26" width="190" height="30" as="geometry" />
        </mxCell>
        <mxCell id="t5vnjOaVWkokOSNiDNNh-3" value="PK" style="shape=partialRectangle;top=0;left=0;bottom=0;html=1;fillColor=none;align=left;verticalAlign=middle;spacingLeft=4;spacingRight=4;whiteSpace=wrap;overflow=hidden;rotatable=0;points=[];portConstraint=eastwest;part=1;fontStyle=1" connectable="0" vertex="1" parent="t5vnjOaVWkokOSNiDNNh-2">
          <mxGeometry width="30" height="30" as="geometry" />
        </mxCell>
        <mxCell id="t5vnjOaVWkokOSNiDNNh-4" value="NombreEvento: T(100)" style="shape=partialRectangle;top=0;left=0;right=0;bottom=0;html=1;align=left;verticalAlign=top;fillColor=none;spacingLeft=34;spacingRight=4;whiteSpace=wrap;overflow=hidden;rotatable=0;points=[[0,0.5],[1,0.5]];portConstraint=eastwest;dropTarget=0;" vertex="1" parent="t5vnjOaVWkokOSNiDNNh-1">
          <mxGeometry y="56" width="190" height="26" as="geometry" />
        </mxCell>
        <mxCell id="t5vnjOaVWkokOSNiDNNh-5" value="" style="shape=partialRectangle;top=0;left=0;bottom=0;html=1;fillColor=none;align=left;verticalAlign=top;spacingLeft=4;spacingRight=4;whiteSpace=wrap;overflow=hidden;rotatable=0;points=[];portConstraint=eastwest;part=1;" connectable="0" vertex="1" parent="t5vnjOaVWkokOSNiDNNh-4">
          <mxGeometry width="30" height="26" as="geometry" />
        </mxCell>
        <mxCell id="t5vnjOaVWkokOSNiDNNh-6" value="FechaEvento: FH" style="shape=partialRectangle;top=0;left=0;right=0;bottom=0;html=1;align=left;verticalAlign=top;fillColor=none;spacingLeft=34;spacingRight=4;whiteSpace=wrap;overflow=hidden;rotatable=0;points=[[0,0.5],[1,0.5]];portConstraint=eastwest;dropTarget=0;" vertex="1" parent="t5vnjOaVWkokOSNiDNNh-1">
          <mxGeometry y="82" width="190" height="26" as="geometry" />
        </mxCell>
        <mxCell id="t5vnjOaVWkokOSNiDNNh-7" value="" style="shape=partialRectangle;top=0;left=0;bottom=0;html=1;fillColor=none;align=left;verticalAlign=top;spacingLeft=4;spacingRight=4;whiteSpace=wrap;overflow=hidden;rotatable=0;points=[];portConstraint=eastwest;part=1;" connectable="0" vertex="1" parent="t5vnjOaVWkokOSNiDNNh-6">
          <mxGeometry width="30" height="26" as="geometry" />
        </mxCell>
        <mxCell id="t5vnjOaVWkokOSNiDNNh-8" value="Visible: B" style="shape=partialRectangle;top=0;left=0;right=0;bottom=0;html=1;align=left;verticalAlign=top;fillColor=none;spacingLeft=34;spacingRight=4;whiteSpace=wrap;overflow=hidden;rotatable=0;points=[[0,0.5],[1,0.5]];portConstraint=eastwest;dropTarget=0;" vertex="1" parent="t5vnjOaVWkokOSNiDNNh-1">
          <mxGeometry y="108" width="190" height="26" as="geometry" />
        </mxCell>
        <mxCell id="t5vnjOaVWkokOSNiDNNh-9" value="" style="shape=partialRectangle;top=0;left=0;bottom=0;html=1;fillColor=none;align=left;verticalAlign=top;spacingLeft=4;spacingRight=4;whiteSpace=wrap;overflow=hidden;rotatable=0;points=[];portConstraint=eastwest;part=1;" connectable="0" vertex="1" parent="t5vnjOaVWkokOSNiDNNh-8">
          <mxGeometry width="30" height="26" as="geometry" />
        </mxCell>
        <mxCell id="t5vnjOaVWkokOSNiDNNh-10" value="Borrado: B" style="shape=partialRectangle;top=0;left=0;right=0;bottom=0;html=1;align=left;verticalAlign=top;fillColor=none;spacingLeft=34;spacingRight=4;whiteSpace=wrap;overflow=hidden;rotatable=0;points=[[0,0.5],[1,0.5]];portConstraint=eastwest;dropTarget=0;" vertex="1" parent="t5vnjOaVWkokOSNiDNNh-1">
          <mxGeometry y="134" width="190" height="26" as="geometry" />
        </mxCell>
        <mxCell id="t5vnjOaVWkokOSNiDNNh-11" value="" style="shape=partialRectangle;top=0;left=0;bottom=0;html=1;fillColor=none;align=left;verticalAlign=top;spacingLeft=4;spacingRight=4;whiteSpace=wrap;overflow=hidden;rotatable=0;points=[];portConstraint=eastwest;part=1;" connectable="0" vertex="1" parent="t5vnjOaVWkokOSNiDNNh-10">
          <mxGeometry width="30" height="26" as="geometry" />
        </mxCell>
        <mxCell id="t5vnjOaVWkokOSNiDNNh-12" value="&lt;span style=&quot;text-wrap: nowrap;&quot;&gt;PersonaAgasajadaId: E&lt;/span&gt;" style="shape=partialRectangle;top=0;left=0;right=0;bottom=0;html=1;align=left;verticalAlign=top;fillColor=none;spacingLeft=34;spacingRight=4;whiteSpace=wrap;overflow=hidden;rotatable=0;points=[[0,0.5],[1,0.5]];portConstraint=eastwest;dropTarget=0;" vertex="1" parent="t5vnjOaVWkokOSNiDNNh-1">
          <mxGeometry y="160" width="190" height="26" as="geometry" />
        </mxCell>
        <mxCell id="t5vnjOaVWkokOSNiDNNh-13" value="FK" style="shape=partialRectangle;top=0;left=0;bottom=0;html=1;fillColor=none;align=left;verticalAlign=top;spacingLeft=4;spacingRight=4;whiteSpace=wrap;overflow=hidden;rotatable=0;points=[];portConstraint=eastwest;part=1;" connectable="0" vertex="1" parent="t5vnjOaVWkokOSNiDNNh-12">
          <mxGeometry width="30" height="26" as="geometry" />
        </mxCell>
        <mxCell id="t5vnjOaVWkokOSNiDNNh-14" value="&lt;span style=&quot;text-wrap: nowrap;&quot;&gt;TipoEvento&lt;/span&gt;&lt;span style=&quot;text-wrap: nowrap;&quot;&gt;Id: E&lt;/span&gt;" style="shape=partialRectangle;top=0;left=0;right=0;bottom=0;html=1;align=left;verticalAlign=top;fillColor=none;spacingLeft=34;spacingRight=4;whiteSpace=wrap;overflow=hidden;rotatable=0;points=[[0,0.5],[1,0.5]];portConstraint=eastwest;dropTarget=0;" vertex="1" parent="t5vnjOaVWkokOSNiDNNh-1">
          <mxGeometry y="186" width="190" height="26" as="geometry" />
        </mxCell>
        <mxCell id="t5vnjOaVWkokOSNiDNNh-15" value="FK" style="shape=partialRectangle;top=0;left=0;bottom=0;html=1;fillColor=none;align=left;verticalAlign=top;spacingLeft=4;spacingRight=4;whiteSpace=wrap;overflow=hidden;rotatable=0;points=[];portConstraint=eastwest;part=1;" connectable="0" vertex="1" parent="t5vnjOaVWkokOSNiDNNh-14">
          <mxGeometry width="30" height="26" as="geometry" />
        </mxCell>
        <mxCell id="t5vnjOaVWkokOSNiDNNh-16" value="&lt;span style=&quot;text-wrap: nowrap;&quot;&gt;UsuarioId: E&lt;/span&gt;" style="shape=partialRectangle;top=0;left=0;right=0;bottom=0;html=1;align=left;verticalAlign=top;fillColor=none;spacingLeft=34;spacingRight=4;whiteSpace=wrap;overflow=hidden;rotatable=0;points=[[0,0.5],[1,0.5]];portConstraint=eastwest;dropTarget=0;" vertex="1" parent="t5vnjOaVWkokOSNiDNNh-1">
          <mxGeometry y="212" width="190" height="26" as="geometry" />
        </mxCell>
        <mxCell id="t5vnjOaVWkokOSNiDNNh-17" value="FK" style="shape=partialRectangle;top=0;left=0;bottom=0;html=1;fillColor=none;align=left;verticalAlign=top;spacingLeft=4;spacingRight=4;whiteSpace=wrap;overflow=hidden;rotatable=0;points=[];portConstraint=eastwest;part=1;" connectable="0" vertex="1" parent="t5vnjOaVWkokOSNiDNNh-16">
          <mxGeometry width="30" height="26" as="geometry" />
        </mxCell>
        <mxCell id="t5vnjOaVWkokOSNiDNNh-18" value="&lt;span style=&quot;text-wrap: nowrap;&quot;&gt;EstadoEvento&lt;/span&gt;&lt;span style=&quot;text-wrap: nowrap;&quot;&gt;Id: E&lt;/span&gt;" style="shape=partialRectangle;top=0;left=0;right=0;bottom=0;html=1;align=left;verticalAlign=top;fillColor=none;spacingLeft=34;spacingRight=4;whiteSpace=wrap;overflow=hidden;rotatable=0;points=[[0,0.5],[1,0.5]];portConstraint=eastwest;dropTarget=0;" vertex="1" parent="t5vnjOaVWkokOSNiDNNh-1">
          <mxGeometry y="238" width="190" height="26" as="geometry" />
        </mxCell>
        <mxCell id="t5vnjOaVWkokOSNiDNNh-19" value="FK" style="shape=partialRectangle;top=0;left=0;bottom=0;html=1;fillColor=none;align=left;verticalAlign=top;spacingLeft=4;spacingRight=4;whiteSpace=wrap;overflow=hidden;rotatable=0;points=[];portConstraint=eastwest;part=1;" connectable="0" vertex="1" parent="t5vnjOaVWkokOSNiDNNh-18">
          <mxGeometry width="30" height="26" as="geometry" />
        </mxCell>
        <mxCell id="t5vnjOaVWkokOSNiDNNh-20" value="EventoEstado" style="swimlane;html=1;fontStyle=0;childLayout=stackLayout;horizontal=1;startSize=26;fillColor=#e0e0e0;horizontalStack=0;resizeParent=1;resizeLast=0;collapsible=1;marginBottom=0;swimlaneFillColor=#ffffff;align=center;rounded=0;shadow=0;comic=0;labelBackgroundColor=none;strokeWidth=1;fontFamily=Verdana;fontSize=14" vertex="1" parent="1">
          <mxGeometry x="-520" y="560" width="190" height="108" as="geometry" />
        </mxCell>
        <mxCell id="t5vnjOaVWkokOSNiDNNh-21" value="EventoEstadoId: E" style="shape=partialRectangle;top=0;left=0;right=0;bottom=1;html=1;align=left;verticalAlign=middle;fillColor=none;spacingLeft=34;spacingRight=4;whiteSpace=wrap;overflow=hidden;rotatable=0;points=[[0,0.5],[1,0.5]];portConstraint=eastwest;dropTarget=0;fontStyle=5;" vertex="1" parent="t5vnjOaVWkokOSNiDNNh-20">
          <mxGeometry y="26" width="190" height="30" as="geometry" />
        </mxCell>
        <mxCell id="t5vnjOaVWkokOSNiDNNh-22" value="&lt;b&gt;PK&lt;/b&gt;" style="shape=partialRectangle;top=0;left=0;bottom=0;html=1;fillColor=none;align=left;verticalAlign=middle;spacingLeft=4;spacingRight=4;whiteSpace=wrap;overflow=hidden;rotatable=0;points=[];portConstraint=eastwest;part=1;" connectable="0" vertex="1" parent="t5vnjOaVWkokOSNiDNNh-21">
          <mxGeometry width="30" height="30" as="geometry" />
        </mxCell>
        <mxCell id="t5vnjOaVWkokOSNiDNNh-23" value="Descripcion: T(50)" style="shape=partialRectangle;top=0;left=0;right=0;bottom=0;html=1;align=left;verticalAlign=top;fillColor=none;spacingLeft=34;spacingRight=4;whiteSpace=wrap;overflow=hidden;rotatable=0;points=[[0,0.5],[1,0.5]];portConstraint=eastwest;dropTarget=0;" vertex="1" parent="t5vnjOaVWkokOSNiDNNh-20">
          <mxGeometry y="56" width="190" height="26" as="geometry" />
        </mxCell>
        <mxCell id="t5vnjOaVWkokOSNiDNNh-24" value="" style="shape=partialRectangle;top=0;left=0;bottom=0;html=1;fillColor=none;align=left;verticalAlign=top;spacingLeft=4;spacingRight=4;whiteSpace=wrap;overflow=hidden;rotatable=0;points=[];portConstraint=eastwest;part=1;" connectable="0" vertex="1" parent="t5vnjOaVWkokOSNiDNNh-23">
          <mxGeometry width="30" height="26" as="geometry" />
        </mxCell>
        <mxCell id="t5vnjOaVWkokOSNiDNNh-25" value="Borrado: B" style="shape=partialRectangle;top=0;left=0;right=0;bottom=0;html=1;align=left;verticalAlign=top;fillColor=none;spacingLeft=34;spacingRight=4;whiteSpace=wrap;overflow=hidden;rotatable=0;points=[[0,0.5],[1,0.5]];portConstraint=eastwest;dropTarget=0;" vertex="1" parent="t5vnjOaVWkokOSNiDNNh-20">
          <mxGeometry y="82" width="190" height="26" as="geometry" />
        </mxCell>
        <mxCell id="t5vnjOaVWkokOSNiDNNh-26" value="" style="shape=partialRectangle;top=0;left=0;bottom=0;html=1;fillColor=none;align=left;verticalAlign=top;spacingLeft=4;spacingRight=4;whiteSpace=wrap;overflow=hidden;rotatable=0;points=[];portConstraint=eastwest;part=1;" connectable="0" vertex="1" parent="t5vnjOaVWkokOSNiDNNh-25">
          <mxGeometry width="30" height="26" as="geometry" />
        </mxCell>
        <mxCell id="t5vnjOaVWkokOSNiDNNh-27" value="EventoServicio" style="swimlane;html=1;fontStyle=0;childLayout=stackLayout;horizontal=1;startSize=26;fillColor=#e0e0e0;horizontalStack=0;resizeParent=1;resizeLast=0;collapsible=1;marginBottom=0;swimlaneFillColor=#ffffff;align=center;rounded=0;shadow=0;comic=0;labelBackgroundColor=none;strokeWidth=1;fontFamily=Verdana;fontSize=14" vertex="1" parent="1">
          <mxGeometry x="-1020" y="120" width="190" height="160" as="geometry">
            <mxRectangle x="-1020" y="120" width="140" height="30" as="alternateBounds" />
          </mxGeometry>
        </mxCell>
        <mxCell id="t5vnjOaVWkokOSNiDNNh-28" value="EventoEstadoId: E" style="shape=partialRectangle;top=0;left=0;right=0;bottom=1;html=1;align=left;verticalAlign=middle;fillColor=none;spacingLeft=34;spacingRight=4;whiteSpace=wrap;overflow=hidden;rotatable=0;points=[[0,0.5],[1,0.5]];portConstraint=eastwest;dropTarget=0;fontStyle=5;" vertex="1" parent="t5vnjOaVWkokOSNiDNNh-27">
          <mxGeometry y="26" width="190" height="30" as="geometry" />
        </mxCell>
        <mxCell id="t5vnjOaVWkokOSNiDNNh-29" value="&lt;b&gt;PK&lt;/b&gt;" style="shape=partialRectangle;top=0;left=0;bottom=0;html=1;fillColor=none;align=left;verticalAlign=middle;spacingLeft=4;spacingRight=4;whiteSpace=wrap;overflow=hidden;rotatable=0;points=[];portConstraint=eastwest;part=1;" connectable="0" vertex="1" parent="t5vnjOaVWkokOSNiDNNh-28">
          <mxGeometry width="30" height="30" as="geometry" />
        </mxCell>
        <mxCell id="t5vnjOaVWkokOSNiDNNh-30" value="Descripcion: T(50)" style="shape=partialRectangle;top=0;left=0;right=0;bottom=0;html=1;align=left;verticalAlign=top;fillColor=none;spacingLeft=34;spacingRight=4;whiteSpace=wrap;overflow=hidden;rotatable=0;points=[[0,0.5],[1,0.5]];portConstraint=eastwest;dropTarget=0;" vertex="1" parent="t5vnjOaVWkokOSNiDNNh-27">
          <mxGeometry y="56" width="190" height="26" as="geometry" />
        </mxCell>
        <mxCell id="t5vnjOaVWkokOSNiDNNh-31" value="" style="shape=partialRectangle;top=0;left=0;bottom=0;html=1;fillColor=none;align=left;verticalAlign=top;spacingLeft=4;spacingRight=4;whiteSpace=wrap;overflow=hidden;rotatable=0;points=[];portConstraint=eastwest;part=1;" connectable="0" vertex="1" parent="t5vnjOaVWkokOSNiDNNh-30">
          <mxGeometry width="30" height="26" as="geometry" />
        </mxCell>
        <mxCell id="t5vnjOaVWkokOSNiDNNh-32" value="&lt;b&gt;EventoId: E&lt;/b&gt;" style="shape=partialRectangle;top=0;left=0;right=0;bottom=0;html=1;align=left;verticalAlign=top;fillColor=none;spacingLeft=34;spacingRight=4;whiteSpace=wrap;overflow=hidden;rotatable=0;points=[[0,0.5],[1,0.5]];portConstraint=eastwest;dropTarget=0;" vertex="1" parent="t5vnjOaVWkokOSNiDNNh-27">
          <mxGeometry y="82" width="190" height="26" as="geometry" />
        </mxCell>
        <mxCell id="t5vnjOaVWkokOSNiDNNh-33" value="&lt;b&gt;FK&lt;/b&gt;" style="shape=partialRectangle;top=0;left=0;bottom=0;html=1;fillColor=none;align=left;verticalAlign=top;spacingLeft=4;spacingRight=4;whiteSpace=wrap;overflow=hidden;rotatable=0;points=[];portConstraint=eastwest;part=1;" connectable="0" vertex="1" parent="t5vnjOaVWkokOSNiDNNh-32">
          <mxGeometry width="30" height="26" as="geometry" />
        </mxCell>
        <mxCell id="t5vnjOaVWkokOSNiDNNh-34" value="&lt;b&gt;ServicioId: E&lt;/b&gt;" style="shape=partialRectangle;top=0;left=0;right=0;bottom=0;html=1;align=left;verticalAlign=top;fillColor=none;spacingLeft=34;spacingRight=4;whiteSpace=wrap;overflow=hidden;rotatable=0;points=[[0,0.5],[1,0.5]];portConstraint=eastwest;dropTarget=0;" vertex="1" parent="t5vnjOaVWkokOSNiDNNh-27">
          <mxGeometry y="108" width="190" height="26" as="geometry" />
        </mxCell>
        <mxCell id="t5vnjOaVWkokOSNiDNNh-35" value="&lt;b&gt;FK&lt;/b&gt;" style="shape=partialRectangle;top=0;left=0;bottom=0;html=1;fillColor=none;align=left;verticalAlign=top;spacingLeft=4;spacingRight=4;whiteSpace=wrap;overflow=hidden;rotatable=0;points=[];portConstraint=eastwest;part=1;" connectable="0" vertex="1" parent="t5vnjOaVWkokOSNiDNNh-34">
          <mxGeometry width="30" height="26" as="geometry" />
        </mxCell>
        <mxCell id="t5vnjOaVWkokOSNiDNNh-36" value="Borrado: B" style="shape=partialRectangle;top=0;left=0;right=0;bottom=0;html=1;align=left;verticalAlign=top;fillColor=none;spacingLeft=34;spacingRight=4;whiteSpace=wrap;overflow=hidden;rotatable=0;points=[[0,0.5],[1,0.5]];portConstraint=eastwest;dropTarget=0;" vertex="1" parent="t5vnjOaVWkokOSNiDNNh-27">
          <mxGeometry y="134" width="190" height="26" as="geometry" />
        </mxCell>
        <mxCell id="t5vnjOaVWkokOSNiDNNh-37" value="" style="shape=partialRectangle;top=0;left=0;bottom=0;html=1;fillColor=none;align=left;verticalAlign=top;spacingLeft=4;spacingRight=4;whiteSpace=wrap;overflow=hidden;rotatable=0;points=[];portConstraint=eastwest;part=1;" connectable="0" vertex="1" parent="t5vnjOaVWkokOSNiDNNh-36">
          <mxGeometry width="30" height="26" as="geometry" />
        </mxCell>
        <mxCell id="t5vnjOaVWkokOSNiDNNh-38" value="EventoTipo" style="swimlane;html=1;fontStyle=0;childLayout=stackLayout;horizontal=1;startSize=26;fillColor=#e0e0e0;horizontalStack=0;resizeParent=1;resizeLast=0;collapsible=1;marginBottom=0;swimlaneFillColor=#ffffff;align=center;rounded=0;shadow=0;comic=0;labelBackgroundColor=none;strokeWidth=1;fontFamily=Verdana;fontSize=14" vertex="1" parent="1">
          <mxGeometry x="-920" y="560" width="190" height="108" as="geometry" />
        </mxCell>
        <mxCell id="t5vnjOaVWkokOSNiDNNh-39" value="TipoEventoId: E" style="shape=partialRectangle;top=0;left=0;right=0;bottom=1;html=1;align=left;verticalAlign=middle;fillColor=none;spacingLeft=34;spacingRight=4;whiteSpace=wrap;overflow=hidden;rotatable=0;points=[[0,0.5],[1,0.5]];portConstraint=eastwest;dropTarget=0;fontStyle=5;" vertex="1" parent="t5vnjOaVWkokOSNiDNNh-38">
          <mxGeometry y="26" width="190" height="30" as="geometry" />
        </mxCell>
        <mxCell id="t5vnjOaVWkokOSNiDNNh-40" value="&lt;b&gt;PK&lt;/b&gt;" style="shape=partialRectangle;top=0;left=0;bottom=0;html=1;fillColor=none;align=left;verticalAlign=middle;spacingLeft=4;spacingRight=4;whiteSpace=wrap;overflow=hidden;rotatable=0;points=[];portConstraint=eastwest;part=1;" connectable="0" vertex="1" parent="t5vnjOaVWkokOSNiDNNh-39">
          <mxGeometry width="30" height="30" as="geometry" />
        </mxCell>
        <mxCell id="t5vnjOaVWkokOSNiDNNh-41" value="Descripcion: T(50)" style="shape=partialRectangle;top=0;left=0;right=0;bottom=0;html=1;align=left;verticalAlign=top;fillColor=none;spacingLeft=34;spacingRight=4;whiteSpace=wrap;overflow=hidden;rotatable=0;points=[[0,0.5],[1,0.5]];portConstraint=eastwest;dropTarget=0;" vertex="1" parent="t5vnjOaVWkokOSNiDNNh-38">
          <mxGeometry y="56" width="190" height="26" as="geometry" />
        </mxCell>
        <mxCell id="t5vnjOaVWkokOSNiDNNh-42" value="" style="shape=partialRectangle;top=0;left=0;bottom=0;html=1;fillColor=none;align=left;verticalAlign=top;spacingLeft=4;spacingRight=4;whiteSpace=wrap;overflow=hidden;rotatable=0;points=[];portConstraint=eastwest;part=1;" connectable="0" vertex="1" parent="t5vnjOaVWkokOSNiDNNh-41">
          <mxGeometry width="30" height="26" as="geometry" />
        </mxCell>
        <mxCell id="t5vnjOaVWkokOSNiDNNh-43" value="Borrado: B" style="shape=partialRectangle;top=0;left=0;right=0;bottom=0;html=1;align=left;verticalAlign=top;fillColor=none;spacingLeft=34;spacingRight=4;whiteSpace=wrap;overflow=hidden;rotatable=0;points=[[0,0.5],[1,0.5]];portConstraint=eastwest;dropTarget=0;" vertex="1" parent="t5vnjOaVWkokOSNiDNNh-38">
          <mxGeometry y="82" width="190" height="26" as="geometry" />
        </mxCell>
        <mxCell id="t5vnjOaVWkokOSNiDNNh-44" value="" style="shape=partialRectangle;top=0;left=0;bottom=0;html=1;fillColor=none;align=left;verticalAlign=top;spacingLeft=4;spacingRight=4;whiteSpace=wrap;overflow=hidden;rotatable=0;points=[];portConstraint=eastwest;part=1;" connectable="0" vertex="1" parent="t5vnjOaVWkokOSNiDNNh-43">
          <mxGeometry width="30" height="26" as="geometry" />
        </mxCell>
        <mxCell id="t5vnjOaVWkokOSNiDNNh-45" value="Persona" style="swimlane;html=1;fontStyle=0;childLayout=stackLayout;horizontal=1;startSize=26;fillColor=#e0e0e0;horizontalStack=0;resizeParent=1;resizeLast=0;collapsible=1;marginBottom=0;swimlaneFillColor=#ffffff;align=center;rounded=0;shadow=0;comic=0;labelBackgroundColor=none;strokeWidth=1;fontFamily=Verdana;fontSize=14" vertex="1" parent="1">
          <mxGeometry x="-280" y="120" width="190" height="212" as="geometry" />
        </mxCell>
        <mxCell id="t5vnjOaVWkokOSNiDNNh-46" value="PersonaId: E" style="shape=partialRectangle;top=0;left=0;right=0;bottom=1;html=1;align=left;verticalAlign=middle;fillColor=none;spacingLeft=34;spacingRight=4;whiteSpace=wrap;overflow=hidden;rotatable=0;points=[[0,0.5],[1,0.5]];portConstraint=eastwest;dropTarget=0;fontStyle=5;" vertex="1" parent="t5vnjOaVWkokOSNiDNNh-45">
          <mxGeometry y="26" width="190" height="30" as="geometry" />
        </mxCell>
        <mxCell id="t5vnjOaVWkokOSNiDNNh-47" value="&lt;b&gt;PK&lt;/b&gt;" style="shape=partialRectangle;top=0;left=0;bottom=0;html=1;fillColor=none;align=left;verticalAlign=middle;spacingLeft=4;spacingRight=4;whiteSpace=wrap;overflow=hidden;rotatable=0;points=[];portConstraint=eastwest;part=1;" connectable="0" vertex="1" parent="t5vnjOaVWkokOSNiDNNh-46">
          <mxGeometry width="30" height="30" as="geometry" />
        </mxCell>
        <mxCell id="t5vnjOaVWkokOSNiDNNh-48" value="Nombre: T(100)" style="shape=partialRectangle;top=0;left=0;right=0;bottom=0;html=1;align=left;verticalAlign=top;fillColor=none;spacingLeft=34;spacingRight=4;whiteSpace=wrap;overflow=hidden;rotatable=0;points=[[0,0.5],[1,0.5]];portConstraint=eastwest;dropTarget=0;" vertex="1" parent="t5vnjOaVWkokOSNiDNNh-45">
          <mxGeometry y="56" width="190" height="26" as="geometry" />
        </mxCell>
        <mxCell id="t5vnjOaVWkokOSNiDNNh-49" value="" style="shape=partialRectangle;top=0;left=0;bottom=0;html=1;fillColor=none;align=left;verticalAlign=top;spacingLeft=4;spacingRight=4;whiteSpace=wrap;overflow=hidden;rotatable=0;points=[];portConstraint=eastwest;part=1;" connectable="0" vertex="1" parent="t5vnjOaVWkokOSNiDNNh-48">
          <mxGeometry width="30" height="26" as="geometry" />
        </mxCell>
        <mxCell id="t5vnjOaVWkokOSNiDNNh-50" value="Apellido: T(100)" style="shape=partialRectangle;top=0;left=0;right=0;bottom=0;html=1;align=left;verticalAlign=top;fillColor=none;spacingLeft=34;spacingRight=4;whiteSpace=wrap;overflow=hidden;rotatable=0;points=[[0,0.5],[1,0.5]];portConstraint=eastwest;dropTarget=0;" vertex="1" parent="t5vnjOaVWkokOSNiDNNh-45">
          <mxGeometry y="82" width="190" height="26" as="geometry" />
        </mxCell>
        <mxCell id="t5vnjOaVWkokOSNiDNNh-51" value="" style="shape=partialRectangle;top=0;left=0;bottom=0;html=1;fillColor=none;align=left;verticalAlign=top;spacingLeft=4;spacingRight=4;whiteSpace=wrap;overflow=hidden;rotatable=0;points=[];portConstraint=eastwest;part=1;" connectable="0" vertex="1" parent="t5vnjOaVWkokOSNiDNNh-50">
          <mxGeometry width="30" height="26" as="geometry" />
        </mxCell>
        <mxCell id="t5vnjOaVWkokOSNiDNNh-52" value="Direccion: T(100)" style="shape=partialRectangle;top=0;left=0;right=0;bottom=0;html=1;align=left;verticalAlign=top;fillColor=none;spacingLeft=34;spacingRight=4;whiteSpace=wrap;overflow=hidden;rotatable=0;points=[[0,0.5],[1,0.5]];portConstraint=eastwest;dropTarget=0;" vertex="1" parent="t5vnjOaVWkokOSNiDNNh-45">
          <mxGeometry y="108" width="190" height="26" as="geometry" />
        </mxCell>
        <mxCell id="t5vnjOaVWkokOSNiDNNh-53" value="" style="shape=partialRectangle;top=0;left=0;bottom=0;html=1;fillColor=none;align=left;verticalAlign=top;spacingLeft=4;spacingRight=4;whiteSpace=wrap;overflow=hidden;rotatable=0;points=[];portConstraint=eastwest;part=1;" connectable="0" vertex="1" parent="t5vnjOaVWkokOSNiDNNh-52">
          <mxGeometry width="30" height="26" as="geometry" />
        </mxCell>
        <mxCell id="t5vnjOaVWkokOSNiDNNh-54" value="Telefono: E" style="shape=partialRectangle;top=0;left=0;right=0;bottom=0;html=1;align=left;verticalAlign=top;fillColor=none;spacingLeft=34;spacingRight=4;whiteSpace=wrap;overflow=hidden;rotatable=0;points=[[0,0.5],[1,0.5]];portConstraint=eastwest;dropTarget=0;" vertex="1" parent="t5vnjOaVWkokOSNiDNNh-45">
          <mxGeometry y="134" width="190" height="26" as="geometry" />
        </mxCell>
        <mxCell id="t5vnjOaVWkokOSNiDNNh-55" value="" style="shape=partialRectangle;top=0;left=0;bottom=0;html=1;fillColor=none;align=left;verticalAlign=top;spacingLeft=4;spacingRight=4;whiteSpace=wrap;overflow=hidden;rotatable=0;points=[];portConstraint=eastwest;part=1;" connectable="0" vertex="1" parent="t5vnjOaVWkokOSNiDNNh-54">
          <mxGeometry width="30" height="26" as="geometry" />
        </mxCell>
        <mxCell id="t5vnjOaVWkokOSNiDNNh-56" value="&lt;span style=&quot;text-wrap: nowrap;&quot;&gt;Email: T(100)&lt;/span&gt;" style="shape=partialRectangle;top=0;left=0;right=0;bottom=0;html=1;align=left;verticalAlign=top;fillColor=none;spacingLeft=34;spacingRight=4;whiteSpace=wrap;overflow=hidden;rotatable=0;points=[[0,0.5],[1,0.5]];portConstraint=eastwest;dropTarget=0;" vertex="1" parent="t5vnjOaVWkokOSNiDNNh-45">
          <mxGeometry y="160" width="190" height="26" as="geometry" />
        </mxCell>
        <mxCell id="t5vnjOaVWkokOSNiDNNh-57" value="" style="shape=partialRectangle;top=0;left=0;bottom=0;html=1;fillColor=none;align=left;verticalAlign=top;spacingLeft=4;spacingRight=4;whiteSpace=wrap;overflow=hidden;rotatable=0;points=[];portConstraint=eastwest;part=1;" connectable="0" vertex="1" parent="t5vnjOaVWkokOSNiDNNh-56">
          <mxGeometry width="30" height="26" as="geometry" />
        </mxCell>
        <mxCell id="t5vnjOaVWkokOSNiDNNh-58" value="&lt;span style=&quot;text-wrap: nowrap;&quot;&gt;Borrado: B&lt;/span&gt;" style="shape=partialRectangle;top=0;left=0;right=0;bottom=0;html=1;align=left;verticalAlign=top;fillColor=none;spacingLeft=34;spacingRight=4;whiteSpace=wrap;overflow=hidden;rotatable=0;points=[[0,0.5],[1,0.5]];portConstraint=eastwest;dropTarget=0;" vertex="1" parent="t5vnjOaVWkokOSNiDNNh-45">
          <mxGeometry y="186" width="190" height="26" as="geometry" />
        </mxCell>
        <mxCell id="t5vnjOaVWkokOSNiDNNh-59" value="" style="shape=partialRectangle;top=0;left=0;bottom=0;html=1;fillColor=none;align=left;verticalAlign=top;spacingLeft=4;spacingRight=4;whiteSpace=wrap;overflow=hidden;rotatable=0;points=[];portConstraint=eastwest;part=1;" connectable="0" vertex="1" parent="t5vnjOaVWkokOSNiDNNh-58">
          <mxGeometry width="30" height="26" as="geometry" />
        </mxCell>
        <mxCell id="t5vnjOaVWkokOSNiDNNh-60" value="Usuario" style="swimlane;html=1;fontStyle=0;childLayout=stackLayout;horizontal=1;startSize=26;fillColor=#e0e0e0;horizontalStack=0;resizeParent=1;resizeLast=0;collapsible=1;marginBottom=0;swimlaneFillColor=#ffffff;align=center;rounded=0;shadow=0;comic=0;labelBackgroundColor=none;strokeWidth=1;fontFamily=Verdana;fontSize=14" vertex="1" parent="1">
          <mxGeometry x="-280" y="400" width="190" height="186.5" as="geometry" />
        </mxCell>
        <mxCell id="t5vnjOaVWkokOSNiDNNh-61" value="UsuarioId: E" style="shape=partialRectangle;top=0;left=0;right=0;bottom=1;html=1;align=left;verticalAlign=middle;fillColor=none;spacingLeft=34;spacingRight=4;whiteSpace=wrap;overflow=hidden;rotatable=0;points=[[0,0.5],[1,0.5]];portConstraint=eastwest;dropTarget=0;fontStyle=5;" vertex="1" parent="t5vnjOaVWkokOSNiDNNh-60">
          <mxGeometry y="26" width="190" height="30" as="geometry" />
        </mxCell>
        <mxCell id="t5vnjOaVWkokOSNiDNNh-62" value="&lt;b&gt;PK&lt;/b&gt;" style="shape=partialRectangle;top=0;left=0;bottom=0;html=1;fillColor=none;align=left;verticalAlign=middle;spacingLeft=4;spacingRight=4;whiteSpace=wrap;overflow=hidden;rotatable=0;points=[];portConstraint=eastwest;part=1;" connectable="0" vertex="1" parent="t5vnjOaVWkokOSNiDNNh-61">
          <mxGeometry width="30" height="30" as="geometry" />
        </mxCell>
        <mxCell id="t5vnjOaVWkokOSNiDNNh-63" value="Nombre: T(100)" style="shape=partialRectangle;top=0;left=0;right=0;bottom=0;html=1;align=left;verticalAlign=top;fillColor=none;spacingLeft=34;spacingRight=4;whiteSpace=wrap;overflow=hidden;rotatable=0;points=[[0,0.5],[1,0.5]];portConstraint=eastwest;dropTarget=0;" vertex="1" parent="t5vnjOaVWkokOSNiDNNh-60">
          <mxGeometry y="56" width="190" height="26" as="geometry" />
        </mxCell>
        <mxCell id="t5vnjOaVWkokOSNiDNNh-64" value="" style="shape=partialRectangle;top=0;left=0;bottom=0;html=1;fillColor=none;align=left;verticalAlign=top;spacingLeft=4;spacingRight=4;whiteSpace=wrap;overflow=hidden;rotatable=0;points=[];portConstraint=eastwest;part=1;" connectable="0" vertex="1" parent="t5vnjOaVWkokOSNiDNNh-63">
          <mxGeometry width="30" height="26" as="geometry" />
        </mxCell>
        <mxCell id="t5vnjOaVWkokOSNiDNNh-65" value="Apellido: T(100)" style="shape=partialRectangle;top=0;left=0;right=0;bottom=0;html=1;align=left;verticalAlign=top;fillColor=none;spacingLeft=34;spacingRight=4;whiteSpace=wrap;overflow=hidden;rotatable=0;points=[[0,0.5],[1,0.5]];portConstraint=eastwest;dropTarget=0;" vertex="1" parent="t5vnjOaVWkokOSNiDNNh-60">
          <mxGeometry y="82" width="190" height="26" as="geometry" />
        </mxCell>
        <mxCell id="t5vnjOaVWkokOSNiDNNh-66" value="" style="shape=partialRectangle;top=0;left=0;bottom=0;html=1;fillColor=none;align=left;verticalAlign=top;spacingLeft=4;spacingRight=4;whiteSpace=wrap;overflow=hidden;rotatable=0;points=[];portConstraint=eastwest;part=1;" connectable="0" vertex="1" parent="t5vnjOaVWkokOSNiDNNh-65">
          <mxGeometry width="30" height="26" as="geometry" />
        </mxCell>
        <mxCell id="t5vnjOaVWkokOSNiDNNh-67" value="&lt;span style=&quot;text-wrap: nowrap;&quot;&gt;Email: T(100)&lt;/span&gt;" style="shape=partialRectangle;top=0;left=0;right=0;bottom=0;html=1;align=left;verticalAlign=top;fillColor=none;spacingLeft=34;spacingRight=4;whiteSpace=wrap;overflow=hidden;rotatable=0;points=[[0,0.5],[1,0.5]];portConstraint=eastwest;dropTarget=0;" vertex="1" parent="t5vnjOaVWkokOSNiDNNh-60">
          <mxGeometry y="108" width="190" height="26" as="geometry" />
        </mxCell>
        <mxCell id="t5vnjOaVWkokOSNiDNNh-68" value="" style="shape=partialRectangle;top=0;left=0;bottom=0;html=1;fillColor=none;align=left;verticalAlign=top;spacingLeft=4;spacingRight=4;whiteSpace=wrap;overflow=hidden;rotatable=0;points=[];portConstraint=eastwest;part=1;" connectable="0" vertex="1" parent="t5vnjOaVWkokOSNiDNNh-67">
          <mxGeometry width="30" height="26" as="geometry" />
        </mxCell>
        <mxCell id="t5vnjOaVWkokOSNiDNNh-69" value="&lt;span style=&quot;text-wrap: nowrap;&quot;&gt;GoogleIdentificador: T(100)&lt;/span&gt;" style="shape=partialRectangle;top=0;left=0;right=0;bottom=0;html=1;align=left;verticalAlign=top;fillColor=none;spacingLeft=34;spacingRight=4;whiteSpace=wrap;overflow=hidden;rotatable=0;points=[[0,0.5],[1,0.5]];portConstraint=eastwest;dropTarget=0;" vertex="1" parent="t5vnjOaVWkokOSNiDNNh-60">
          <mxGeometry y="134" width="190" height="26" as="geometry" />
        </mxCell>
        <mxCell id="t5vnjOaVWkokOSNiDNNh-70" value="" style="shape=partialRectangle;top=0;left=0;bottom=0;html=1;fillColor=none;align=left;verticalAlign=top;spacingLeft=4;spacingRight=4;whiteSpace=wrap;overflow=hidden;rotatable=0;points=[];portConstraint=eastwest;part=1;" connectable="0" vertex="1" parent="t5vnjOaVWkokOSNiDNNh-69">
          <mxGeometry width="30" height="26" as="geometry" />
        </mxCell>
        <mxCell id="t5vnjOaVWkokOSNiDNNh-71" value="&lt;span style=&quot;text-wrap: nowrap;&quot;&gt;Borrado: B&lt;/span&gt;" style="shape=partialRectangle;top=0;left=0;right=0;bottom=0;html=1;align=left;verticalAlign=top;fillColor=none;spacingLeft=34;spacingRight=4;whiteSpace=wrap;overflow=hidden;rotatable=0;points=[[0,0.5],[1,0.5]];portConstraint=eastwest;dropTarget=0;" vertex="1" parent="t5vnjOaVWkokOSNiDNNh-60">
          <mxGeometry y="160" width="190" height="26" as="geometry" />
        </mxCell>
        <mxCell id="t5vnjOaVWkokOSNiDNNh-72" value="" style="shape=partialRectangle;top=0;left=0;bottom=0;html=1;fillColor=none;align=left;verticalAlign=top;spacingLeft=4;spacingRight=4;whiteSpace=wrap;overflow=hidden;rotatable=0;points=[];portConstraint=eastwest;part=1;" connectable="0" vertex="1" parent="t5vnjOaVWkokOSNiDNNh-71">
          <mxGeometry width="30" height="26" as="geometry" />
        </mxCell>
        <mxCell id="t5vnjOaVWkokOSNiDNNh-73" value="Servicio" style="swimlane;html=1;fontStyle=0;childLayout=stackLayout;horizontal=1;startSize=26;fillColor=#e0e0e0;horizontalStack=0;resizeParent=1;resizeLast=0;collapsible=1;marginBottom=0;swimlaneFillColor=#ffffff;align=center;rounded=0;shadow=0;comic=0;labelBackgroundColor=none;strokeWidth=1;fontFamily=Verdana;fontSize=14" vertex="1" parent="1">
          <mxGeometry x="-1020" y="361.38" width="190" height="137.25" as="geometry" />
        </mxCell>
        <mxCell id="t5vnjOaVWkokOSNiDNNh-74" value="ServicioId: E" style="shape=partialRectangle;top=0;left=0;right=0;bottom=1;html=1;align=left;verticalAlign=middle;fillColor=none;spacingLeft=34;spacingRight=4;whiteSpace=wrap;overflow=hidden;rotatable=0;points=[[0,0.5],[1,0.5]];portConstraint=eastwest;dropTarget=0;fontStyle=5;" vertex="1" parent="t5vnjOaVWkokOSNiDNNh-73">
          <mxGeometry y="26" width="190" height="30" as="geometry" />
        </mxCell>
        <mxCell id="t5vnjOaVWkokOSNiDNNh-75" value="&lt;b&gt;PK&lt;/b&gt;" style="shape=partialRectangle;top=0;left=0;bottom=0;html=1;fillColor=none;align=left;verticalAlign=middle;spacingLeft=4;spacingRight=4;whiteSpace=wrap;overflow=hidden;rotatable=0;points=[];portConstraint=eastwest;part=1;" connectable="0" vertex="1" parent="t5vnjOaVWkokOSNiDNNh-74">
          <mxGeometry width="30" height="30" as="geometry" />
        </mxCell>
        <mxCell id="t5vnjOaVWkokOSNiDNNh-76" value="Descripcion: T(100)" style="shape=partialRectangle;top=0;left=0;right=0;bottom=0;html=1;align=left;verticalAlign=top;fillColor=none;spacingLeft=34;spacingRight=4;whiteSpace=wrap;overflow=hidden;rotatable=0;points=[[0,0.5],[1,0.5]];portConstraint=eastwest;dropTarget=0;" vertex="1" parent="t5vnjOaVWkokOSNiDNNh-73">
          <mxGeometry y="56" width="190" height="26" as="geometry" />
        </mxCell>
        <mxCell id="t5vnjOaVWkokOSNiDNNh-77" value="" style="shape=partialRectangle;top=0;left=0;bottom=0;html=1;fillColor=none;align=left;verticalAlign=top;spacingLeft=4;spacingRight=4;whiteSpace=wrap;overflow=hidden;rotatable=0;points=[];portConstraint=eastwest;part=1;" connectable="0" vertex="1" parent="t5vnjOaVWkokOSNiDNNh-76">
          <mxGeometry width="30" height="26" as="geometry" />
        </mxCell>
        <mxCell id="t5vnjOaVWkokOSNiDNNh-78" value="PrecioServicio: R" style="shape=partialRectangle;top=0;left=0;right=0;bottom=0;html=1;align=left;verticalAlign=top;fillColor=none;spacingLeft=34;spacingRight=4;whiteSpace=wrap;overflow=hidden;rotatable=0;points=[[0,0.5],[1,0.5]];portConstraint=eastwest;dropTarget=0;" vertex="1" parent="t5vnjOaVWkokOSNiDNNh-73">
          <mxGeometry y="82" width="190" height="26" as="geometry" />
        </mxCell>
        <mxCell id="t5vnjOaVWkokOSNiDNNh-79" value="" style="shape=partialRectangle;top=0;left=0;bottom=0;html=1;fillColor=none;align=left;verticalAlign=top;spacingLeft=4;spacingRight=4;whiteSpace=wrap;overflow=hidden;rotatable=0;points=[];portConstraint=eastwest;part=1;" connectable="0" vertex="1" parent="t5vnjOaVWkokOSNiDNNh-78">
          <mxGeometry width="30" height="26" as="geometry" />
        </mxCell>
        <mxCell id="t5vnjOaVWkokOSNiDNNh-80" value="&lt;span style=&quot;text-wrap: nowrap;&quot;&gt;Borrado: B&lt;/span&gt;" style="shape=partialRectangle;top=0;left=0;right=0;bottom=0;html=1;align=left;verticalAlign=top;fillColor=none;spacingLeft=34;spacingRight=4;whiteSpace=wrap;overflow=hidden;rotatable=0;points=[[0,0.5],[1,0.5]];portConstraint=eastwest;dropTarget=0;" vertex="1" parent="t5vnjOaVWkokOSNiDNNh-73">
          <mxGeometry y="108" width="190" height="26" as="geometry" />
        </mxCell>
        <mxCell id="t5vnjOaVWkokOSNiDNNh-81" value="" style="shape=partialRectangle;top=0;left=0;bottom=0;html=1;fillColor=none;align=left;verticalAlign=top;spacingLeft=4;spacingRight=4;whiteSpace=wrap;overflow=hidden;rotatable=0;points=[];portConstraint=eastwest;part=1;" connectable="0" vertex="1" parent="t5vnjOaVWkokOSNiDNNh-80">
          <mxGeometry width="30" height="26" as="geometry" />
        </mxCell>
        <mxCell id="t5vnjOaVWkokOSNiDNNh-82" style="edgeStyle=orthogonalEdgeStyle;rounded=1;orthogonalLoop=1;jettySize=auto;html=1;entryX=0;entryY=0.5;entryDx=0;entryDy=0;curved=0;endArrow=ERoneToMany;endFill=0;startArrow=ERoneToMany;startFill=0;" edge="1" parent="1" source="t5vnjOaVWkokOSNiDNNh-32" target="t5vnjOaVWkokOSNiDNNh-2">
          <mxGeometry relative="1" as="geometry" />
        </mxCell>
        <mxCell id="t5vnjOaVWkokOSNiDNNh-83" style="edgeStyle=orthogonalEdgeStyle;rounded=1;orthogonalLoop=1;jettySize=auto;html=1;entryX=1;entryY=0.5;entryDx=0;entryDy=0;curved=0;endArrow=ERoneToMany;endFill=0;startArrow=ERoneToMany;startFill=0;" edge="1" parent="1" source="t5vnjOaVWkokOSNiDNNh-34" target="t5vnjOaVWkokOSNiDNNh-74">
          <mxGeometry relative="1" as="geometry" />
        </mxCell>
        <mxCell id="t5vnjOaVWkokOSNiDNNh-84" style="edgeStyle=orthogonalEdgeStyle;rounded=1;orthogonalLoop=1;jettySize=auto;html=1;entryX=0;entryY=0.5;entryDx=0;entryDy=0;curved=0;endArrow=ERmandOne;endFill=0;startArrow=ERoneToMany;startFill=0;" edge="1" parent="1" source="t5vnjOaVWkokOSNiDNNh-16" target="t5vnjOaVWkokOSNiDNNh-61">
          <mxGeometry relative="1" as="geometry" />
        </mxCell>
        <mxCell id="t5vnjOaVWkokOSNiDNNh-85" style="edgeStyle=orthogonalEdgeStyle;rounded=1;orthogonalLoop=1;jettySize=auto;html=1;entryX=0;entryY=0.5;entryDx=0;entryDy=0;curved=0;endArrow=ERmandOne;endFill=0;startArrow=ERoneToMany;startFill=0;" edge="1" parent="1" source="t5vnjOaVWkokOSNiDNNh-12" target="t5vnjOaVWkokOSNiDNNh-46">
          <mxGeometry relative="1" as="geometry" />
        </mxCell>
        <mxCell id="t5vnjOaVWkokOSNiDNNh-86" style="edgeStyle=orthogonalEdgeStyle;rounded=1;orthogonalLoop=1;jettySize=auto;html=1;exitX=0;exitY=0.5;exitDx=0;exitDy=0;entryX=1;entryY=0.5;entryDx=0;entryDy=0;curved=0;startArrow=ERoneToMany;startFill=0;endArrow=ERmandOne;endFill=0;" edge="1" parent="1" source="t5vnjOaVWkokOSNiDNNh-14" target="t5vnjOaVWkokOSNiDNNh-39">
          <mxGeometry relative="1" as="geometry" />
        </mxCell>
        <mxCell id="t5vnjOaVWkokOSNiDNNh-87" style="edgeStyle=orthogonalEdgeStyle;rounded=1;orthogonalLoop=1;jettySize=auto;html=1;entryX=0;entryY=0.5;entryDx=0;entryDy=0;curved=0;startArrow=ERoneToMany;startFill=0;endArrow=ERmandOne;endFill=0;" edge="1" parent="1" source="t5vnjOaVWkokOSNiDNNh-18" target="t5vnjOaVWkokOSNiDNNh-21">
          <mxGeometry relative="1" as="geometry" />
        </mxCell>
      </root>
    </mxGraphModel>
  </diagram>
</mxfile>
